<svg width="680" height="1451" viewBox="0 0 680 1451" fill="none" xmlns="http://www.w3.org/2000/svg">
<path d="M106.832 127.37L114.788 121.945L124.204 118H134.628L142.073 119.973L148.029 124.904L151.007 130.329L152 136.74V146.11L148.866 156.075L145.051 164.675L139.095 172.74L130.161 181.123L124.204 185.784L121.68 187.348L113.285 190H103.684L94.9197 189.014L87.4745 184.575L84 177.671V167.808L84.9927 159.918L87.4745 152.557L90.4526 146.11L94.9197 139.699L100.876 132.301L106.832 127.37Z" fill="white"/>
<path d="M101.475 693.369L99 625.433L100.485 553.999L102 553.5L110.5 584.5L118.802 619.938L138.604 693.369L145.04 743.823L149 838.235L145.535 985.098L142.564 1043.54L139.594 1072.02L138.109 1083.01L136.624 1090.5L134.644 1091L125.238 1043.54L118.802 994.09L114.842 953.128L110.881 911.667L105.931 832.74L102.96 761.306L101.475 693.369Z" fill="white"/>
<path d="M79.5043 1244L80.5128 1244.5L81.5214 1247.99L82.5299 1250.98L83.5385 1256.46L86.0598 1263.44L91.1026 1275.9L97.1538 1288.85L110.265 1315.77L126.402 1341.18L138 1354.64L151.111 1367.1L159.179 1373.58L170.274 1380.56L174.812 1383.55L180.359 1386.54L185.906 1388.53L192.462 1390.52L195.991 1392.02L197 1396.01L194.479 1397.5L189.94 1398L178.846 1394.51L161.701 1386.04L149.598 1378.06L138 1367.1L130.94 1360.62L124.385 1353.15L120.855 1348.16L104.718 1321.75L95.1368 1301.31L89.5897 1288.85L84.547 1276.89L81.5214 1266.43L79.5043 1257.46L79 1249.98V1245.5L79.5043 1244Z" fill="white"/>
<path d="M349.5 10H306.449L274.4 12.5017L233.839 18.5059L209.802 25.0105L196.282 31.515L171.244 46.0252L134.187 70.0419L109.149 88.0545L98.1324 96.0601L87.1157 107.568L77.6012 121.078L71.5921 133.086L67.586 146.595L62.5784 161.606L55.5677 187.124L50.5601 212.141L44.551 279.188L43.0487 348.737L44.551 389.265L49.5586 430.794L53.0639 451.809L56.5693 465.318L58.0715 475.825L60.5753 494.338V566.388L38.5419 586.402L22.0167 604.415L15.0061 612.921L12.5023 623.428L11 635.937L12.5023 648.446L18.5114 650.447L34.5358 642.942L56.0685 635.937H60.5753L61.5769 646.945L62.5784 658.453L63.5799 689.975V771.031L68.1245 903.624L68.5875 917.133L68.0868 922.137L67.586 927.641L66.0837 933.145L63.5799 938.148L59.5738 946.654L54.5662 957.161L52.0624 962.665L49.5586 969.67L48.0563 975.674L47.5556 982.179L46.554 987.683L45.5525 996.189L45.0518 1009.7L43.5495 1024.71L43.0487 1032.21L42.5479 1039.72V1046.72V1053.23L41.5464 1059.23L40.5449 1065.74L39.5434 1084.75L38.5419 1105.26V1125.28L40.5449 1145.29L42.0472 1165.31L43.5495 1185.82L44.551 1205.33L45.5525 1215.84L48.0563 1225.35L52.0624 1238.36L60.0746 1251.87L72.0928 1278.39L84.1111 1305.9L94.6271 1332.42L101.638 1345.93L109.65 1359.44L119.164 1371.95L130.181 1383.96L144.202 1397.97L161.228 1409.48L186.767 1421.99L208.801 1428.49L231.836 1432.99L254.37 1436.5L279.909 1439L305.447 1440.5H347.5" stroke="white" stroke-width="20"/>
<path d="M331 10H373.551L405.6 12.5017L446.161 18.5059L470.198 25.0105L483.718 31.515L508.756 46.0252L545.813 70.0419L570.851 88.0545L581.868 96.0601L592.884 107.568L602.399 121.078L608.408 133.086L612.414 146.595L617.422 161.606L624.432 187.124L629.44 212.141L635.449 279.188L636.951 348.737L635.449 389.265L630.441 430.794L626.936 451.809L623.431 465.318L621.928 475.825L619.425 494.338V566.388L641.458 586.402L657.983 604.415L664.994 612.921L667.498 623.428L669 635.937L667.498 648.446L661.489 650.447L645.464 642.942L623.932 635.937H619.425L618.423 646.945L617.422 658.453L616.42 689.975V771.031L611.876 903.624L611.412 917.133L611.913 922.137L612.414 927.641L613.916 933.145L616.42 938.148L620.426 946.654L625.434 957.161L627.938 962.665L630.441 969.67L631.944 975.674L632.444 982.179L633.446 987.683L634.447 996.189L634.948 1009.7L636.451 1024.71L636.951 1032.21L637.452 1039.72V1046.72V1053.23L638.454 1059.23L639.455 1065.74L640.457 1084.75L641.458 1105.26V1125.28L639.455 1145.29L637.953 1165.31L636.451 1185.82L635.449 1205.33L634.447 1215.84L631.944 1225.35L627.938 1238.36L619.925 1251.87L607.907 1278.39L595.889 1305.9L585.373 1332.42L578.362 1345.93L570.35 1359.44L560.836 1371.95L549.819 1383.96L535.798 1397.97L518.772 1409.48L493.233 1421.99L471.199 1428.49L448.164 1432.99L425.63 1436.5L400.091 1439L374.553 1440.5H328" stroke="white" stroke-width="20"/>
<path d="M573.168 127.37L565.212 121.945L555.796 118H545.372L537.927 119.973L531.971 124.904L528.993 130.329L528 136.74V146.11L531.134 156.075L534.949 164.675L540.905 172.74L549.839 181.123L555.796 185.784L558.32 187.348L566.715 190H576.316L585.08 189.014L592.526 184.575L596 177.671V167.808L595.007 159.918L592.526 152.557L589.547 146.11L585.08 139.699L579.124 132.301L573.168 127.37Z" fill="white"/>
<path d="M259.645 645.905L340 644.398L420.355 645.905L432.484 647.413L440.065 648.419L476.957 654.45L513.849 662.492L522.946 664L529.011 662.492L535.581 656.461L538.108 647.413L544.172 629.319L554.785 581.569L566.914 527.788L573.484 506.175L575 498.133L572.473 487.578L566.914 479.033L549.226 455.41L533.559 440.331L518.903 428.268L475.946 404.142L452.194 394.592L424.903 387.053L385.989 380.518L340 377L294.011 380.518L255.097 387.053L227.806 394.592L204.054 404.142L161.097 428.268L146.441 440.331L130.774 455.41L113.086 479.033L107.527 487.578L105 498.133L106.516 506.175L113.086 527.788L125.215 581.569L135.828 629.319L141.892 647.413L144.419 656.461L150.989 662.492L157.054 664L166.151 662.492L203.043 654.45L239.935 648.419L247.516 647.413L259.645 645.905Z" fill="white"/>
<path d="M578.525 693.369L581 625.433L579.515 553.999L578 553.5L569.5 584.5L561.198 619.938L541.396 693.369L534.96 743.823L531 838.235L534.465 985.098L537.436 1043.54L540.406 1072.02L541.891 1083.01L543.376 1090.5L545.356 1091L554.762 1043.54L561.198 994.09L565.158 953.128L569.119 911.667L574.069 832.74L577.04 761.306L578.525 693.369Z" fill="white"/>
<path d="M185.142 1007L174.549 1012.05L169 1022.66V1037.82L174.549 1119.15L183.628 1211.6L187.664 1225.75L195.735 1233.83L213.389 1237.88L258.788 1244.95L340 1250L421.212 1244.95L466.611 1237.88L484.265 1233.83L492.336 1225.75L496.372 1211.6L505.451 1119.15L511 1037.82V1022.66L505.451 1012.05L494.858 1007H340H185.142Z" fill="white"/>
<path d="M600.496 1244L599.487 1244.5L598.479 1247.99L597.47 1250.98L596.462 1256.46L593.94 1263.44L588.897 1275.9L582.846 1288.85L569.735 1315.77L553.598 1341.18L542 1354.64L528.889 1367.1L520.821 1373.58L509.726 1380.56L505.188 1383.55L499.641 1386.54L494.094 1388.53L487.538 1390.52L484.009 1392.02L483 1396.01L485.521 1397.5L490.06 1398L501.154 1394.51L518.299 1386.04L530.402 1378.06L542 1367.1L549.06 1360.62L555.615 1353.15L559.145 1348.16L575.282 1321.75L584.863 1301.31L590.41 1288.85L595.453 1276.89L598.479 1266.43L600.496 1257.46L601 1249.98V1245.5L600.496 1244Z" fill="white"/>
</svg>
